<svg width="202" height="78" viewBox="0 0 202 78" fill="none" xmlns="http://www.w3.org/2000/svg">
<path d="M24.2286 37.5793C23.6103 37.2116 22.9011 37.0249 22.1819 37.0406H9.92848V5.53858C9.9381 4.8302 9.80122 4.12747 9.52641 3.47449C9.25159 2.82152 8.84478 2.23239 8.33151 1.74408L8.27225 1.67808C7.84897 1.21549 7.32521 0.856176 6.74126 0.627791C6.09996 0.367115 5.41371 0.234896 4.72147 0.238642C4.11068 0.225972 3.5053 0.355231 2.95294 0.616223C2.40058 0.877215 1.91632 1.26282 1.53828 1.74272C0.564948 2.74254 0.015886 4.07998 0.00592641 5.4753V40.4056C-0.0292507 41.1781 0.0924463 41.9497 0.36368 42.6738C0.634914 43.3979 1.05006 44.0596 1.58405 44.6189C2.09264 45.1422 2.70471 45.5537 3.38123 45.8273C4.05774 46.1009 4.78384 46.2305 5.51322 46.2078H22.1846C22.7158 46.2195 23.2435 46.119 23.7333 45.913C24.2231 45.707 24.664 45.4 25.0271 45.0121C25.4248 44.6247 25.7389 44.16 25.9501 43.6466C26.1614 43.1331 26.2651 42.5819 26.2551 42.0268C26.2583 41.0365 26.067 40.0552 25.6923 39.1385C25.3559 38.4954 24.8515 37.9556 24.2327 37.5765" fill="#5B5B5D"/>
<path d="M43.1325 21.235C43.1487 20.3576 42.9223 19.4927 42.4781 18.7359C42.047 17.9865 41.4273 17.363 40.6805 16.9275C39.937 16.4851 39.089 16.2489 38.2238 16.2435C37.3587 16.2381 36.5079 16.4635 35.7589 16.8965C35.0075 17.328 34.385 17.9522 33.9556 18.7047C33.5262 19.4572 33.3055 20.3108 33.3163 21.1771V41.8073C33.2995 42.4593 33.4178 43.1077 33.6637 43.7118C33.9095 44.3159 34.2777 44.8627 34.7449 45.3177C35.1896 45.782 35.7259 46.1491 36.3196 46.3957C36.9134 46.6423 37.5519 46.7631 38.1948 46.7504C38.8463 46.7651 39.4938 46.6446 40.0964 46.3964C40.699 46.1481 41.2436 45.7777 41.6957 45.3083C42.1682 44.8468 42.5403 44.2928 42.7887 43.6808C43.0371 43.0689 43.1564 42.4123 43.1392 41.7521L43.1325 21.235Z" fill="#5B5B5D"/>
<path d="M75.9273 41.9756C75.9979 40.7206 75.6071 39.483 74.8285 38.4961C74.4423 38.0862 73.9708 37.7661 73.4473 37.5583C72.9238 37.3506 72.3611 37.2602 71.7988 37.2937C71.194 37.3209 70.5928 37.4025 70.0026 37.5374L67.8024 38.0976H67.56C66.9216 38.2119 66.2749 38.274 65.6264 38.2834C64.4339 38.2909 63.2629 37.9669 62.2439 37.3476L62.1941 37.3179C61.3066 36.7564 60.5643 35.9934 60.0275 35.0908C59.4976 34.1248 59.1994 33.0489 59.1563 31.948V31.8134C59.118 30.9 59.2664 29.9883 59.5923 29.1343C59.9183 28.2802 60.4151 27.5016 61.0522 26.846C61.676 26.2318 62.4186 25.7515 63.2345 25.4346C64.0505 25.1176 64.9226 24.9706 65.7974 25.0026C66.4352 24.986 67.0729 25.0407 67.6987 25.1655L69.639 25.6166L71.3464 26.0206C71.5501 26.0704 71.7588 26.0975 71.9685 26.1014C72.933 26.1434 73.8776 25.8181 74.6118 25.1911C75.2644 24.6082 75.6906 23.8139 75.8155 22.9478C75.7792 20.5671 74.8474 17.4014 67.941 16.6379C67.1092 16.5509 66.2728 16.5145 65.4365 16.5289C63.623 16.5056 61.8176 16.7743 60.0894 17.3247C58.5231 17.8553 57.0639 18.661 55.7805 19.704C54.996 20.3728 54.2748 21.1124 53.6261 21.9136C52.5625 23.2861 51.7236 24.8187 51.1404 26.4542C50.5559 28.0242 50.2413 29.6818 50.21 31.3569C50.2177 34.5843 51.2119 37.7322 53.0592 40.3786C54.3557 42.3448 56.1463 43.9357 58.2514 44.9918C60.5778 46.1067 63.1247 46.6851 65.7044 46.6844C67.7218 46.7296 69.735 46.4829 71.6817 45.9519C72.878 45.6502 73.9754 45.0428 74.8663 44.1893C75.4381 43.5766 75.8088 42.8037 75.9287 41.9742" fill="#5B5B5D"/>
<path d="M92.6254 21.235C92.642 20.3583 92.4175 19.4938 91.9764 18.7359C91.545 17.9881 90.927 17.365 90.1828 16.9275C89.4369 16.482 88.5848 16.2456 87.7159 16.2435C86.8549 16.2398 86.0083 16.4636 85.2616 16.8923C84.5148 17.321 83.8946 17.9393 83.4636 18.6847C83.0249 19.4413 82.7997 20.3027 82.8119 21.1771V41.8073C82.795 42.4592 82.913 43.1076 83.1587 43.7117C83.4043 44.3158 83.7722 44.8626 84.2392 45.3177C84.6837 45.7824 85.2198 46.1497 85.8137 46.3963C86.4075 46.6429 87.0461 46.7635 87.689 46.7504C88.3405 46.7648 88.9879 46.644 89.5905 46.3958C90.193 46.1476 90.7376 45.7774 91.19 45.3083C91.6617 44.8464 92.0331 44.2922 92.2809 43.6803C92.5288 43.0685 92.6479 42.412 92.6308 41.7521L92.6254 21.235Z" fill="#5B5B5D"/>
<path d="M132.095 31.4067C132.094 30.3503 131.987 29.2966 131.777 28.2613C131.565 27.2255 131.241 26.2159 130.81 25.2504C130.365 24.251 129.812 23.3029 129.162 22.4227C128.482 21.5094 127.704 20.6736 126.841 19.9303C125.376 18.6661 123.698 17.6734 121.884 16.9989C119.962 16.2994 117.929 15.9509 115.883 15.9702C112.989 15.9357 110.138 16.6649 107.617 18.0842C105.199 19.4359 103.186 21.4099 101.789 23.8016C100.395 26.1563 99.6634 28.8441 99.6719 31.5804C99.6745 34.2878 100.42 36.9425 101.826 39.2557C103.242 41.595 105.25 43.5194 107.647 44.8344C110.203 46.2005 113.058 46.9083 115.956 46.8938C118.854 46.8792 121.702 46.1427 124.243 44.7509C125.873 43.8252 127.327 42.6202 128.539 41.1907C129.7 39.8244 130.603 38.2585 131.204 36.5694C131.793 34.91 132.096 33.1623 132.098 31.4014L132.095 31.4067ZM122.447 32.9633C122.326 34.354 121.744 35.6643 120.792 36.6855C119.84 37.7067 118.574 38.3802 117.196 38.5986C116.767 38.7018 116.329 38.7618 115.888 38.7776C114.975 38.7857 114.07 38.5975 113.235 38.2258C112.401 37.8541 111.655 37.3076 111.05 36.6232C109.798 35.2245 109.133 33.3973 109.193 31.5212C109.172 30.1697 109.552 28.8423 110.285 27.7065C111.079 26.4914 112.246 25.5671 113.61 25.0726C114.975 24.5782 116.463 24.5404 117.851 24.965C119.238 25.3895 120.451 26.2535 121.305 27.4267C122.159 28.5999 122.609 30.0189 122.587 31.47C122.572 31.9691 122.527 32.4669 122.453 32.9606" fill="#5B5B5D"/>
<path d="M166.427 16.8858C165.717 16.4504 164.897 16.2275 164.064 16.2435C163.195 16.2311 162.34 16.4615 161.595 16.9087C160.836 17.3618 160.207 18.0021 159.767 18.7682C159.319 19.536 159.086 20.4106 159.094 21.2997V32.4153C159.187 33.8192 158.729 35.2041 157.818 36.2758C157.233 36.8803 156.521 37.3483 155.735 37.6465C154.948 37.9446 154.105 38.0656 153.266 38.0007H153.05L152.848 37.9562C151.72 37.728 150.702 37.1293 149.954 36.2556C149.047 35.1887 148.586 33.8133 148.667 32.4153V21.2997C148.685 20.6315 148.567 19.9667 148.319 19.3459C148.071 18.7251 147.699 18.1615 147.226 17.6896C146.786 17.2215 146.252 16.851 145.66 16.6019C145.067 16.3528 144.429 16.2307 143.787 16.2435C142.96 16.2303 142.147 16.4567 141.445 16.8952C140.692 17.3216 140.066 17.9394 139.629 18.6861C139.181 19.4382 138.954 20.3009 138.973 21.1758V33.1088C138.973 37.3113 139.952 40.5389 141.884 42.7082C143.816 44.8774 146.772 46.2186 150.972 46.702C151.96 46.8225 152.955 46.8877 153.95 46.8972C154.92 46.8855 155.888 46.8204 156.85 46.702C159.285 46.4987 161.647 45.7667 163.771 44.5569C165.448 43.564 166.774 42.0722 167.564 40.2898C168.494 38.0132 168.934 35.5667 168.858 33.1088V21.1758C168.877 20.2972 168.651 19.4306 168.206 18.6726C167.777 17.9319 167.162 17.3156 166.422 16.8844" fill="#5B5B5D"/>
<path d="M201.987 37.1012C201.978 35.8174 201.656 34.555 201.05 33.4231C200.444 32.2912 199.572 31.3237 198.509 30.6043C197.417 29.8496 196.224 29.2526 194.966 28.8309C194.966 28.8309 193.711 28.3824 193.704 28.3824C192.141 27.8236 190.513 27.4493 188.963 26.8272C188.205 26.5283 187.34 25.8846 187.34 24.9771C187.34 23.8312 188.566 23.3451 189.495 23.3114C190.747 23.3291 191.989 23.5379 193.178 23.9308L194.886 24.3348C195.742 24.5758 196.623 24.7154 197.511 24.7509C197.898 24.7541 198.284 24.7089 198.659 24.6162C199.393 24.4559 200.045 24.0367 200.495 23.4353C200.94 22.8679 201.181 22.1675 201.18 21.4465C201.207 20.7833 201.018 20.1292 200.641 19.5829C199.296 18.1838 197.548 17.2387 195.64 16.8791C193.817 16.4181 191.942 16.1963 190.062 16.2193C187.665 16.1703 185.284 16.6177 183.068 17.5335C181.291 18.2607 179.741 19.4505 178.58 20.9793C177.595 22.2727 177.059 23.8523 177.054 25.478C177.06 26.4609 177.254 27.4335 177.625 28.3434C177.97 29.1619 178.453 29.9151 179.053 30.5706C179.737 31.2655 180.544 31.828 181.433 32.2295C183.149 33.0034 184.935 33.6108 186.767 34.0433C188.119 34.2388 189.42 34.6992 190.594 35.3979C190.847 35.6268 191.05 35.9062 191.189 36.2181C191.328 36.5299 191.401 36.8675 191.402 37.209V37.4231C191.402 37.4231 191.318 37.6021 191.311 37.6075C191.018 38.0247 190.603 38.3411 190.123 38.5136C189.643 38.6862 189.121 38.7064 188.629 38.5716C186.668 38.2058 184.742 37.6738 182.871 36.9814C182.056 36.6902 181.201 36.5236 180.336 36.4872C179.392 36.4541 178.461 36.7061 177.663 37.2103C176.979 37.6586 176.474 38.333 176.237 39.1156L176.21 39.187C176.082 39.5314 176.02 39.8968 176.027 40.2642C176.027 41.6942 177.123 43.0919 179.28 44.4385C181.67 45.6743 184.306 46.3615 186.996 46.4502C188.111 46.5202 188.941 46.5593 189.433 46.5593C192.665 46.7265 195.856 45.7728 198.467 43.8595C199.548 43.0927 200.432 42.0804 201.047 40.9055C201.661 39.7307 201.988 38.4269 202 37.1012" fill="#5B5B5D"/>
<path d="M62.8039 77.7663C56.5772 77.7734 50.4871 75.9419 45.2971 72.5016C40.1072 69.0613 36.0485 64.1652 33.63 58.4274C33.3622 57.8194 33.2178 57.1643 33.2055 56.5C33.1931 55.8357 33.3129 55.1756 33.558 54.5581C33.8031 53.9405 34.1685 53.3779 34.633 52.9028C35.0975 52.4278 35.6518 52.0499 36.2637 51.791C36.8756 51.5321 37.5328 51.3975 38.1972 51.395C38.8616 51.3924 39.5199 51.5221 40.1337 51.7762C40.7476 52.0304 41.3047 52.4041 41.7729 52.8756C42.241 53.347 42.6107 53.9069 42.8605 54.5225C44.5217 58.4483 47.3047 61.7964 50.8606 64.1474C54.4165 66.4983 58.5872 67.7475 62.85 67.7383C67.1128 67.7291 71.2781 66.4619 74.8238 64.0957C78.3696 61.7294 81.1381 58.3693 82.7823 54.4363C83.036 53.8292 83.4067 53.278 83.8734 52.8141C84.3401 52.3503 84.8936 51.9829 85.5023 51.7329C86.111 51.483 86.7629 51.3554 87.4209 51.3574C88.0789 51.3594 88.7301 51.491 89.3373 51.7446C89.9444 51.9983 90.4956 52.369 90.9595 52.8357C91.4233 53.3024 91.7907 53.8559 92.0407 54.4646C92.2906 55.0733 92.4182 55.7252 92.4162 56.3832C92.4142 57.0412 92.2826 57.6924 92.029 58.2995C89.6302 64.0705 85.5735 69.0003 80.3723 72.4653C75.1711 75.9302 69.059 77.7745 62.8093 77.7649" fill="#D80029"/>
<path d="M92.5865 5.61397C92.587 6.58567 92.2994 7.5357 91.7599 8.34388C91.2204 9.15206 90.4533 9.78209 89.5557 10.1542C88.6581 10.5264 87.6703 10.624 86.7172 10.4346C85.7641 10.2453 84.8886 9.77754 84.2014 9.09054C83.5142 8.40354 83.0462 7.52817 82.8566 6.57515C82.667 5.62212 82.7643 4.63427 83.1363 3.73656C83.5082 2.83885 84.138 2.07162 84.946 1.53191C85.7541 0.992202 86.704 0.704263 87.6757 0.704529C88.9779 0.704529 90.2268 1.22173 91.1477 2.14239C92.0686 3.06305 92.5861 4.31178 92.5865 5.61397" fill="#D80029"/>
<path d="M43.1326 5.61397C43.1323 6.58458 42.8443 7.53332 42.3049 8.34025C41.7655 9.14717 40.9989 9.77605 40.1021 10.1474C39.2053 10.5187 38.2186 10.6158 37.2666 10.4263C36.3147 10.2369 35.4403 9.76949 34.7539 9.08316C34.0676 8.39684 33.6002 7.52244 33.4108 6.57048C33.2214 5.61853 33.3184 4.63178 33.6898 3.735C34.0611 2.83822 34.6899 2.07167 35.4969 1.53226C36.3038 0.99285 37.2525 0.704795 38.2232 0.704529C38.8679 0.704352 39.5064 0.831218 40.1021 1.07788C40.6978 1.32454 41.2391 1.68616 41.695 2.14208C42.151 2.598 42.5126 3.13928 42.7593 3.735C43.0059 4.33072 43.1328 4.9692 43.1326 5.61397" fill="#D80029"/>
</svg>
