<svg xmlns="http://www.w3.org/2000/svg" width="210" height="60"><defs><clipPath id="a"><path d="M0 0h210v60H0z"/></clipPath></defs><g data-name="Artboard – 1"><g data-name="Licious Meatopia logo" clip-path="url(#a)"><g data-name="Group 1" fill="#5b5b5d"><path data-name="Path 1" d="M73.394 57.163l2.926-17.237h4.435l3.452 9.19 3.429-9.19h4.435l2.926 17.237H90.54l-1.486-9.921-4.07 9.921h-1.783l-3.863-9.921-1.486 9.921z"/><path data-name="Path 2" d="M108.554 43.721h-5.327v2.881h5.03v3.795h-5.03v2.972h5.327v3.795h-9.807V39.926h9.807z"/><path data-name="Path 3" d="M123.254 54.168h-6.4l-1.029 2.995h-4.778l6.561-17.237h4.892l6.562 17.237h-4.779zm-1.189-3.406l-2.011-5.738-2.012 5.738z"/><path data-name="Path 4" d="M137.725 43.721v13.443h-4.48V43.721h-3.681v-3.795h11.846v3.795z"/><path data-name="Path 5" d="M143.371 48.545a8.888 8.888 0 015.681-8.4 10.965 10.965 0 017.693 0 9.1 9.1 0 013.03 1.932 8.827 8.827 0 011.977 2.892 9.381 9.381 0 010 7.156 8.817 8.817 0 01-1.977 2.891 9.094 9.094 0 01-3.03 1.932 10.963 10.963 0 01-7.693 0 8.916 8.916 0 01-5.681-8.4zm4.688 0a4.574 4.574 0 00.389 1.9 4.749 4.749 0 002.594 2.5 5.067 5.067 0 003.726 0 4.862 4.862 0 001.554-.995 4.7 4.7 0 001.064-1.509 4.826 4.826 0 000-3.795 4.725 4.725 0 00-1.064-1.509 4.872 4.872 0 00-1.554-.995 5.067 5.067 0 00-3.726 0 4.735 4.735 0 00-1.542.995 4.788 4.788 0 00-1.052 1.509 4.577 4.577 0 00-.39 1.899z"/><path data-name="Path 6" d="M170.691 57.163h-4.481V39.926h7.132a6.1 6.1 0 014.446 1.509 6.63 6.63 0 010 8.5 6.1 6.1 0 01-4.446 1.509h-2.651zm0-9.328h1.485q2.469 0 2.469-2.148t-2.468-2.148h-1.485z"/><path data-name="Path 7" d="M187.104 39.926v17.237h-4.48V39.926z"/><path data-name="Path 8" d="M202.188 54.168h-6.4l-1.029 2.995h-4.771l6.56-17.237h4.892l6.562 17.237h-4.778zM201 50.762l-2.012-5.738-2.012 5.738z"/></g><g data-name="Group 4"><g data-name="Group 3"><g data-name="Group 2"><path data-name="Path 9" d="M19.388 28.799a2.755 2.755 0 00-1.469-.391h-8.8V5.799a3.69 3.69 0 00-1.146-2.723l-.042-.047a2.943 2.943 0 00-1.1-.753 3.794 3.794 0 00-1.45-.279 2.833 2.833 0 00-2.285 1.08 3.88 3.88 0 00-1.1 2.679v25.07a4.108 4.108 0 001.133 3.024 3.764 3.764 0 002.82 1.14h11.969a2.713 2.713 0 002.04-.858 2.917 2.917 0 00.881-2.142 5.433 5.433 0 00-.4-2.073 2.879 2.879 0 00-1.051-1.118" fill="#5b5b5d"/><path data-name="Path 10" d="M32.952 17.068a3.419 3.419 0 00-.47-1.794 3.554 3.554 0 00-1.294-1.295 3.491 3.491 0 00-3.533-.022 3.492 3.492 0 00-1.753 3.072v14.807a3.4 3.4 0 001.025 2.52 3.337 3.337 0 002.476 1.029 3.387 3.387 0 002.508-1.035 3.442 3.442 0 001.036-2.552z" fill="#5b5b5d"/><path data-name="Path 11" d="M56.49 31.955a3.7 3.7 0 00-.789-2.5 2.763 2.763 0 00-2.174-.864 7.248 7.248 0 00-1.289.175l-1.579.4h-.172a8.584 8.584 0 01-1.388.133 4.618 4.618 0 01-2.428-.671l-.036-.022a4.786 4.786 0 01-1.555-1.6 5.1 5.1 0 01-.626-2.255v-.092a4.826 4.826 0 011.36-3.565 4.614 4.614 0 013.403-1.317 6.156 6.156 0 011.365.117l1.393.324 1.226.293a2.037 2.037 0 00.446.058 2.737 2.737 0 001.9-.653 2.67 2.67 0 00.864-1.61c-.026-1.708-.695-3.981-5.652-4.529a14.832 14.832 0 00-1.8-.078 12.132 12.132 0 00-3.838.571 9.983 9.983 0 00-3.09 1.708 12.044 12.044 0 00-1.548 1.586 11.779 11.779 0 00-1.785 3.258 10.657 10.657 0 00-.667 3.519 11.361 11.361 0 002.045 6.478 9.645 9.645 0 003.727 3.3 12.368 12.368 0 005.349 1.215 15.026 15.026 0 004.29-.526 5.111 5.111 0 002.285-1.265 2.949 2.949 0 00.763-1.59" fill="#5b5b5d"/><path data-name="Path 12" d="M68.474 17.068a3.437 3.437 0 00-.466-1.794 3.581 3.581 0 00-1.287-1.3 3.47 3.47 0 00-1.77-.491 3.508 3.508 0 00-3.052 1.752 3.469 3.469 0 00-.468 1.789v14.807a3.4 3.4 0 001.025 2.52 3.333 3.333 0 002.476 1.029 3.387 3.387 0 002.509-1.035 3.447 3.447 0 001.034-2.552z" fill="#5b5b5d"/><path data-name="Path 13" d="M96.804 24.368a11.432 11.432 0 00-.228-2.258 10.438 10.438 0 00-.694-2.161 10.857 10.857 0 00-1.183-2.026 11.158 11.158 0 00-1.666-1.789 11.672 11.672 0 00-3.558-2.1 12.263 12.263 0 00-4.307-.738 11.809 11.809 0 00-5.933 1.517 11.14 11.14 0 00-4.182 4.1 10.892 10.892 0 00-1.519 5.583 10.62 10.62 0 001.544 5.51 11.152 11.152 0 004.178 4 12.514 12.514 0 0011.911-.06 11.463 11.463 0 003.083-2.555 10.619 10.619 0 001.912-3.317 11.123 11.123 0 00.642-3.709m-6.926 1.121a4.488 4.488 0 01-3.773 4.044 4.744 4.744 0 01-.938.128 4.582 4.582 0 01-3.473-1.542 5.24 5.24 0 01-1.332-3.662 4.911 4.911 0 01.783-2.738 4.806 4.806 0 018.829 2.7 8.94 8.94 0 01-.1 1.07" fill="#5b5b5d"/><path data-name="Path 14" d="M121.444 13.947a3.13 3.13 0 00-1.7-.461 3.352 3.352 0 00-1.773.477 3.7 3.7 0 00-1.311 1.335 3.542 3.542 0 00-.482 1.817v7.978a3.881 3.881 0 01-.916 2.771 4.106 4.106 0 01-3.266 1.238h-.155l-.145-.032a3.7 3.7 0 01-2.077-1.22 3.905 3.905 0 01-.924-2.756v-7.978a3.521 3.521 0 00-1.035-2.591 3.3 3.3 0 00-2.468-1.038 3.077 3.077 0 00-1.68.468 3.521 3.521 0 00-1.3 1.285 3.352 3.352 0 00-.471 1.787v8.565c0 3.016.7 5.333 2.089 6.89s3.508 2.52 6.523 2.866a19.191 19.191 0 002.138.14 18.92 18.92 0 002.08-.14 12.062 12.062 0 004.967-1.54 6.722 6.722 0 002.723-3.062 12.6 12.6 0 00.929-5.154v-8.565a3.407 3.407 0 00-.467-1.8 3.543 3.543 0 00-1.28-1.283" fill="#5b5b5d"/><path data-name="Path 15" d="M146.966 28.456a5.679 5.679 0 00-2.5-4.663 10.141 10.141 0 00-2.543-1.273s-.9-.322-.906-.322c-1.122-.4-2.291-.67-3.4-1.117-.544-.215-1.165-.675-1.165-1.328 0-.822.879-1.171 1.547-1.2a8.819 8.819 0 012.643.444l1.226.294a8.147 8.147 0 001.883.3 3.327 3.327 0 00.825-.1 2.243 2.243 0 001.317-.847 2.31 2.31 0 00.492-1.428 2.2 2.2 0 00-.391-1.338 6.7 6.7 0 00-3.589-1.94 15.561 15.561 0 00-4-.473 12.474 12.474 0 00-5.02.943 7.716 7.716 0 00-3.222 2.473 5.358 5.358 0 00-1.095 3.229 5.52 5.52 0 00.409 2.056 5.587 5.587 0 001.024 1.6 5.682 5.682 0 001.708 1.19 21.1 21.1 0 003.828 1.3 7.459 7.459 0 012.747.972 1.759 1.759 0 01.576 1.3v.153s-.06.129-.065.132a1.779 1.779 0 01-1.925.692 25.248 25.248 0 01-4.132-1.141 6.183 6.183 0 00-1.82-.355 3.369 3.369 0 00-1.918.519 2.5 2.5 0 00-1.023 1.368l-.019.052a2.1 2.1 0 00-.132.776c0 1.026.786 2.033 2.335 2.992a12.989 12.989 0 005.538 1.443c.8.05 1.4.079 1.749.079a10.087 10.087 0 006.484-1.938 6.016 6.016 0 002.535-4.85" fill="#5b5b5d"/><path data-name="Path 16" d="M47.071 57.642A22.7 22.7 0 0126.13 43.764a3.6 3.6 0 116.625-2.8 15.542 15.542 0 0028.653-.062 3.6 3.6 0 116.636 2.773 22.674 22.674 0 01-20.976 13.971" fill="#d80029"/><path data-name="Path 17" d="M68.447 5.856a3.526 3.526 0 11-3.525-3.523 3.525 3.525 0 013.525 3.523" fill="#d80029"/><path data-name="Path 18" d="M32.952 5.856a3.523 3.523 0 11-3.524-3.523 3.523 3.523 0 013.524 3.523" fill="#d80029"/></g></g></g></g></g></svg>