<svg xmlns="http://www.w3.org/2000/svg" id="rewards_icon" width="24" height="24" viewBox="0 0 24 24">
    <defs>
        <style>
            .cls-2,.cls-5{fill:none}.cls-3{fill:#e41d36}.cls-5{stroke:#000;stroke-linecap:round;stroke-linejoin:round}
        </style>
    </defs>
    <path id="Rectangle_1817" fill="#fff" d="M0 0H24V24H0z" opacity="0.003"/>
    <g id="My_rewards" transform="translate(1.567 2.608)">
        <g id="Group_2588" transform="translate(2.864)">
            <path id="Path_6293" d="M36.679 43.888a19.315 19.315 0 0 1-2.108-10.562c.048-.034.061-.051.072-.05a6.439 6.439 0 0 0 4.3-1.393 5.013 5.013 0 0 1 5.806.212 5.86 5.86 0 0 0 2.409 1.265c.539.088 1.089.107 1.685.162a19.288 19.288 0 0 1-2.455 10.366z" class="cls-2" transform="translate(-34.448 -31.057)"/>
            <path id="Path_6294" d="M51.673 46.149l5.412.117a18.645 18.645 0 0 0 2.252-10.473c-.531-.04-1.025-.062-1.51-.116.219 3.599-.05 8.837-6.154 10.472z" class="cls-3" transform="translate(-45.149 -33.435)"/>
            <path id="Path_6301" fill="none" stroke="#000" stroke-linecap="square" stroke-miterlimit="10" d="M36.663 43.83a18.8 18.8 0 0 1-2.2-10.392c.047-.035.06-.053.071-.052a6.439 6.439 0 0 0 4.274-1.459 5.012 5.012 0 0 1 5.808.121 5.852 5.852 0 0 0 2.429 1.227c.54.08 1.09.09 1.687.136a18.8 18.8 0 0 1-2.132 10.3" transform="translate(-34.403 -31.057)"/>
            <g id="chicken_leg" transform="translate(3.207 2.7)">
                <g id="Group_2583">
                    <path id="Path_6296" d="M41.644 44.863c0-.275-.315-.326-.315-.326a.38.38 0 0 1-.29-.51l.538-.347A3.937 3.937 0 0 0 42.4 43a2.315 2.315 0 0 0 .178-.266 2.858 2.858 0 0 0 .351-.935l.346-1.849a5.268 5.268 0 0 1 1.456-2.756 2.323 2.323 0 0 1 3.068.01 2.291 2.291 0 0 1 .665 2.977 5.3 5.3 0 0 1-2.4 2l-1.743.731a2.88 2.88 0 0 0-1.129.845 2.149 2.149 0 0 0-.442.951.9.9 0 0 1-.444.621l-.02.008c-.464.201-.643-.278-.642-.474z" class="cls-2" transform="translate(-41.012 -36.621)"/>
                    <path id="Path_6297" d="M42.139 44.863a.3.3 0 0 0-.164-.27l.085-.036.224.363c.838.137.324-.884 1.7-1.973l1.4-.86a5.3 5.3 0 0 0 2.4-2 2.291 2.291 0 0 0-.665-2.977 2.689 2.689 0 0 0-.835-.453 2.542 2.542 0 0 1 2.009.547 2.291 2.291 0 0 1 .665 2.977 5.3 5.3 0 0 1-2.4 2l-1.743.731a2.88 2.88 0 0 0-1.129.845 2.149 2.149 0 0 0-.442.951.9.9 0 0 1-.444.621l-.02.008c-.462.201-.641-.278-.641-.474z" class="cls-3" transform="translate(-41.975 -36.621)"/>
                    <path id="Path_6298" d="M45.978 49.054c-.589.283-1.335-.686-1.335-.686" class="cls-5" transform="translate(-42.881 -42.668)"/>
                    <path id="Path_6299" d="M43.673 45.33a.9.9 0 0 0 .444-.621 2.149 2.149 0 0 1 .442-.951 2.88 2.88 0 0 1 1.129-.845l1.743-.731a5.3 5.3 0 0 0 2.4-2 2.291 2.291 0 0 0-.665-2.977 2.323 2.323 0 0 0-3.068-.01 5.268 5.268 0 0 0-1.456 2.756L44.3 41.8a2.858 2.858 0 0 1-.351.935 2.316 2.316 0 0 1-.178.266" class="cls-5" transform="translate(-42.382 -36.621)"/>
                </g>
                <path id="Path_6300" d="M42.283 52.827c-.461.2-.64-.279-.64-.475 0-.275-.315-.326-.315-.326a.38.38 0 0 1-.29-.51s.037-.2.538-.347" class="cls-5" transform="translate(-41.012 -44.11)"/>
            </g>
        </g>
        <g id="bottom_ribbon" transform="translate(0 12.709)">
            <g id="Group_2582">
                <path id="Path_6295" fill="none" stroke="#000" stroke-linecap="round" stroke-miterlimit="10" d="M49.05 63.152c-.4-.487-.8-.975-1.2-1.454.311-.322.638-.661.968-1l.215-.219-.3-.066c-.521-.115-1.578-.292-1.578-.292v-1.915l-.138-.025q-1.756-.315-3.521-.493a56.384 56.384 0 0 0-9.852.076q-1.408.163-2.81.414l-.134.022v1.89c-.522.1-1.05.212-1.57.326l-.3.066.215.219c.33.336.657.674.968 1-.4.479-.8.968-1.2 1.454l-.315.385.482-.113c.88-.206 1.8-.39 2.744-.546l.284-.042v-.146c0-.264 0-.424.009-.578 0-.135.008-.276.009-.485a45.285 45.285 0 0 1 13.81 0c0 .207 0 .346.009.48 0 .154.009.314.009.578v.146l.281.042c.942.156 1.866.34 2.746.546l.482.113z" transform="translate(-28.5 -57.5)"/>
            </g>
        </g>
    </g>
</svg>
